{"asset": {"generator": "Khronos glTF Blender I/O v1.6.16", "version": "2.0"}, "scene": 0, "scenes": [{"name": "Scene", "nodes": [0, 1, 2]}], "nodes": [{"mesh": 0, "name": "brass_diya_lantern_connection", "translation": [0.004462062381207943, 0.12954048812389374, -0.006589289754629135]}, {"mesh": 1, "name": "brass_diya_lantern", "translation": [-0.04607363045215607, 0.06032951921224594, -0.0062445588409900665]}, {"mesh": 2, "name": "brass_diya_lantern_chain", "translation": [0.005237404722720385, 0.366452157497406, -0.005710269790142775]}], "materials": [{"doubleSided": true, "name": "brass_diya_lantern", "normalTexture": {"index": 0}, "pbrMetallicRoughness": {"baseColorTexture": {"index": 1}, "metallicRoughnessTexture": {"index": 2}}}, {"alphaMode": "BLEND", "doubleSided": true, "name": "brass_diya_lantern_glass", "normalTexture": {"index": 3}, "pbrMetallicRoughness": {"baseColorTexture": {"index": 4}, "metallicRoughnessTexture": {"index": 5}}}, {"alphaMode": "BLEND", "doubleSided": true, "emissiveFactor": [1, 1, 1], "emissiveTexture": {"index": 6}, "name": "brass_diya_lantern_flame", "normalTexture": {"index": 7}, "pbrMetallicRoughness": {"baseColorTexture": {"index": 8}, "metallicRoughnessTexture": {"index": 9}}}], "meshes": [{"name": "Spiral.001", "primitives": [{"attributes": {"POSITION": 0, "NORMAL": 1, "TEXCOORD_0": 2}, "indices": 3, "material": 0}]}, {"name": "Cylinder.002", "primitives": [{"attributes": {"POSITION": 4, "NORMAL": 5, "TEXCOORD_0": 6, "COLOR_0": 7}, "indices": 8, "material": 0}, {"attributes": {"POSITION": 9, "NORMAL": 10, "TEXCOORD_0": 11, "COLOR_0": 12}, "indices": 13, "material": 1}, {"attributes": {"POSITION": 14, "NORMAL": 15, "TEXCOORD_0": 16, "COLOR_0": 17}, "indices": 18, "material": 2}]}, {"name": "Plane.003", "primitives": [{"attributes": {"POSITION": 19, "NORMAL": 20, "TEXCOORD_0": 21}, "indices": 22, "material": 0}]}], "textures": [{"sampler": 0, "source": 0}, {"sampler": 0, "source": 1}, {"sampler": 0, "source": 2}, {"sampler": 0, "source": 0}, {"sampler": 0, "source": 3}, {"sampler": 0, "source": 2}, {"sampler": 0, "source": 1}, {"sampler": 0, "source": 0}, {"sampler": 0, "source": 3}, {"sampler": 0, "source": 2}], "images": [{"mimeType": "image/jpeg", "name": "brass_diya_lantern_nor_gl", "uri": "textures/brass_diya_lantern_nor_gl_1k.jpg"}, {"mimeType": "image/jpeg", "name": "brass_diya_lantern_diff", "uri": "textures/brass_diya_lantern_diff_1k.jpg"}, {"mimeType": "image/jpeg", "name": "brass_diya_lantern_metal-brass_diya_lantern_rough", "uri": "textures/brass_diya_lantern_arm_1k.jpg"}, {"mimeType": "image/jpeg", "name": "brass_diya_lantern_diff-brass_diya_lantern_opacity", "uri": "textures/brass_diya_lantern_diff_1k.jpg"}], "accessors": [{"bufferView": 0, "componentType": 5126, "count": 350, "max": [0.012725185602903366, 0.02224784344434738, 0.00865508895367384], "min": [-0.011219244450330734, -0.0004923548549413681, -0.007646225392818451], "type": "VEC3"}, {"bufferView": 1, "componentType": 5126, "count": 350, "type": "VEC3"}, {"bufferView": 2, "componentType": 5126, "count": 350, "type": "VEC2"}, {"bufferView": 3, "componentType": 5123, "count": 1764, "type": "SCALAR"}, {"bufferView": 4, "componentType": 5126, "count": 6550, "max": [0.1127786934375763, 0.07307698577642441, 0.061641376465559006], "min": [-0.010225843638181686, -0.06032276153564453, -0.06136316433548927], "type": "VEC3"}, {"bufferView": 5, "componentType": 5126, "count": 6550, "type": "VEC3"}, {"bufferView": 6, "componentType": 5126, "count": 6550, "type": "VEC2"}, {"bufferView": 7, "componentType": 5123, "count": 6550, "normalized": true, "type": "VEC4"}, {"bufferView": 8, "componentType": 5123, "count": 22674, "type": "SCALAR"}, {"bufferView": 9, "componentType": 5126, "count": 209, "max": [0.10052019357681274, 0.05109655112028122, 0.0447540357708931], "min": [0.002032652497291565, -0.04883473366498947, -0.04447582736611366], "type": "VEC3"}, {"bufferView": 10, "componentType": 5126, "count": 209, "type": "VEC3"}, {"bufferView": 11, "componentType": 5126, "count": 209, "type": "VEC2"}, {"bufferView": 12, "componentType": 5123, "count": 209, "normalized": true, "type": "VEC4"}, {"bufferView": 13, "componentType": 5123, "count": 504, "type": "SCALAR"}, {"bufferView": 14, "componentType": 5126, "count": 144, "max": [0.06009535863995552, 0.021157052367925644, 0.010329804383218288], "min": [0.04356881603598595, -0.009806215763092041, -0.00619673915207386], "type": "VEC3"}, {"bufferView": 15, "componentType": 5126, "count": 144, "type": "VEC3"}, {"bufferView": 16, "componentType": 5126, "count": 144, "type": "VEC2"}, {"bufferView": 17, "componentType": 5123, "count": 144, "normalized": true, "type": "VEC4"}, {"bufferView": 18, "componentType": 5123, "count": 216, "type": "SCALAR"}, {"bufferView": 19, "componentType": 5126, "count": 2873, "max": [0.002431863686069846, 0.014378552325069904, 0.004316763486713171], "min": [-0.0025929429102689028, -0.21792232990264893, -0.00510910851880908], "type": "VEC3"}, {"bufferView": 20, "componentType": 5126, "count": 2873, "type": "VEC3"}, {"bufferView": 21, "componentType": 5126, "count": 2873, "type": "VEC2"}, {"bufferView": 22, "componentType": 5123, "count": 13068, "type": "SCALAR"}], "bufferViews": [{"buffer": 0, "byteLength": 4200, "byteOffset": 0}, {"buffer": 0, "byteLength": 4200, "byteOffset": 4200}, {"buffer": 0, "byteLength": 2800, "byteOffset": 8400}, {"buffer": 0, "byteLength": 3528, "byteOffset": 11200}, {"buffer": 0, "byteLength": 78600, "byteOffset": 14728}, {"buffer": 0, "byteLength": 78600, "byteOffset": 93328}, {"buffer": 0, "byteLength": 52400, "byteOffset": 171928}, {"buffer": 0, "byteLength": 52400, "byteOffset": 224328}, {"buffer": 0, "byteLength": 45348, "byteOffset": 276728}, {"buffer": 0, "byteLength": 2508, "byteOffset": 322076}, {"buffer": 0, "byteLength": 2508, "byteOffset": 324584}, {"buffer": 0, "byteLength": 1672, "byteOffset": 327092}, {"buffer": 0, "byteLength": 1672, "byteOffset": 328764}, {"buffer": 0, "byteLength": 1008, "byteOffset": 330436}, {"buffer": 0, "byteLength": 1728, "byteOffset": 331444}, {"buffer": 0, "byteLength": 1728, "byteOffset": 333172}, {"buffer": 0, "byteLength": 1152, "byteOffset": 334900}, {"buffer": 0, "byteLength": 1152, "byteOffset": 336052}, {"buffer": 0, "byteLength": 432, "byteOffset": 337204}, {"buffer": 0, "byteLength": 34476, "byteOffset": 337636}, {"buffer": 0, "byteLength": 34476, "byteOffset": 372112}, {"buffer": 0, "byteLength": 22984, "byteOffset": 406588}, {"buffer": 0, "byteLength": 26136, "byteOffset": 429572}], "samplers": [{"magFilter": 9729, "minFilter": 9987}], "buffers": [{"byteLength": 455708, "uri": "data:application/octet-stream;base64,"}]}